<svg width="32" height="32" viewBox="0 0 32 32" fill="none" xmlns="http://www.w3.org/2000/svg">
<g clip-path="url(#clip0_607_3724)">
<path d="M17 26.25V22.75C17 22.336 16.553 22 16 22C15.447 22 15 22.336 15 22.75V26.25C15 26.6648 15.447 27 16 27C16.553 27 17 26.6648 17 26.25Z" fill="#666666"/>
<path d="M24 15.0214V16.4099C24 19.4972 20.4183 23 16 23C11.5817 23 8 19.4972 8 16.4099V15" stroke="#666666" stroke-width="2" stroke-linecap="round"/>
<path d="M16 5C17.108 5 18.1204 5.41883 18.8528 6.10615C19.5564 6.76648 20 7.67709 20 8.69231V15.3077C20 16.3229 19.5564 17.2335 18.8528 17.8938C18.1204 18.5812 17.108 19 16 19C14.892 19 13.8796 18.5812 13.1472 17.8938C12.4436 17.2335 12 16.3229 12 15.3077V8.69231C12 7.67709 12.4436 6.76648 13.1472 6.10615C13.8796 5.41883 14.892 5 16 5Z" stroke="#666666" stroke-width="2"/>
<rect x="6.49121" y="7.90515" width="2" height="24.2681" rx="1" transform="rotate(-45 6.49121 7.90515)" fill="#FF0000"/>
</g>
<defs>
<clipPath id="clip0_607_3724">
<rect width="32" height="32" fill="white"/>
</clipPath>
</defs>
</svg>
